<?xml version="1.0" encoding="UTF-8"?>
<svg xmlns="http://www.w3.org/2000/svg" xmlns:xlink="http://www.w3.org/1999/xlink" width="32px" height="32px" viewBox="0 0 32 32" version="1.1">
<g id="surface1">
<path style=" stroke:none;fill-rule:nonzero;fill:rgb(27.843137%,69.019608%,82.745098%);fill-opacity:1;" d="M 32 16 C 32 24.835938 24.835938 32 16 32 C 7.164062 32 0 24.835938 0 16 C 0 7.164062 7.164062 0 16 0 C 24.835938 0 32 7.164062 32 16 Z M 32 16 "/>
<path style=" stroke:none;fill-rule:nonzero;fill:rgb(19.607843%,59.607843%,72.941176%);fill-opacity:1;" d="M 2.132812 16 C 2.132812 7.523438 8.726562 0.585938 17.066406 0.0351562 C 16.714844 0.0117188 16.359375 0 16 0 C 7.164062 0 0 7.164062 0 16 C 0 24.835938 7.164062 32 16 32 C 16.359375 32 16.714844 31.988281 17.066406 31.964844 C 8.726562 31.414062 2.132812 24.476562 2.132812 16 Z M 2.132812 16 "/>
<path style=" stroke:none;fill-rule:nonzero;fill:rgb(89.803922%,89.803922%,89.803922%);fill-opacity:1;" d="M 23.765625 6.816406 C 23.609375 6.710938 23.410156 6.695312 23.242188 6.773438 L 6.046875 14.777344 C 5.746094 14.917969 5.554688 15.226562 5.5625 15.558594 C 5.570312 15.886719 5.769531 16.179688 6.066406 16.308594 L 21.917969 23.210938 C 22.449219 23.453125 23.070312 23.074219 23.105469 22.496094 L 24 7.289062 C 24.011719 7.101562 23.921875 6.921875 23.765625 6.816406 Z M 23.765625 6.816406 "/>
<path style=" stroke:none;fill-rule:nonzero;fill:rgb(80%,80%,80%);fill-opacity:1;" d="M 10.726562 18.339844 L 11.796875 25.5 L 23.699219 6.777344 Z M 10.726562 18.339844 "/>
<path style=" stroke:none;fill-rule:nonzero;fill:rgb(100%,100%,100%);fill-opacity:1;" d="M 23.242188 6.773438 L 6.046875 14.777344 C 5.753906 14.914062 5.558594 15.222656 5.5625 15.546875 C 5.566406 15.875 5.769531 16.179688 6.066406 16.308594 L 10.726562 18.339844 L 23.699219 6.777344 C 23.554688 6.707031 23.386719 6.707031 23.242188 6.773438 Z M 23.242188 6.773438 "/>
<path style=" stroke:none;fill-rule:nonzero;fill:rgb(89.803922%,89.803922%,89.803922%);fill-opacity:1;" d="M 13.214844 19.421875 L 11.796875 25.5 L 23.699219 6.777344 Z M 13.214844 19.421875 "/>
<path style=" stroke:none;fill-rule:nonzero;fill:rgb(100%,100%,100%);fill-opacity:1;" d="M 23.765625 6.816406 C 23.746094 6.800781 23.722656 6.789062 23.699219 6.777344 L 13.214844 19.421875 L 21.917969 23.210938 C 22.445312 23.453125 23.070312 23.074219 23.105469 22.496094 L 24 7.289062 C 24.011719 7.101562 23.921875 6.921875 23.765625 6.816406 Z M 23.765625 6.816406 "/>
</g>
</svg>
