<?xml version="1.0" encoding="UTF-8"?>
<svg xmlns="http://www.w3.org/2000/svg" xmlns:xlink="http://www.w3.org/1999/xlink" width="32px" height="32px" viewBox="0 0 32 32" version="1.1">
<g id="surface1">
<path style=" stroke:none;fill-rule:evenodd;fill:rgb(47.058824%,35.294118%,98.039216%);fill-opacity:1;" d="M 24 32 L 8 32 C 3.582031 32 0 28.417969 0 24 L 0 8 C 0 3.582031 3.582031 0 8 0 L 24 0 C 28.417969 0 32 3.582031 32 8 L 32 24 C 32 28.417969 28.417969 32 24 32 "/>
<path style=" stroke:none;fill-rule:evenodd;fill:rgb(58.823529%,47.058824%,100%);fill-opacity:1;" d="M 15 9 L 24 9 C 26.394531 9 28.371094 7.121094 28.492188 4.730469 C 28.617188 2.335938 26.84375 0.269531 24.460938 0.0234375 C 24.304688 0.015625 24.15625 0 24 0 L 8 0 C 3.582031 0 0 3.582031 0 8 L 0 24 C 0 15.714844 6.714844 9 15 9 "/>
<path style=" stroke:none;fill-rule:evenodd;fill:rgb(37.254902%,25.490196%,88.235294%);fill-opacity:1;" d="M 24 16 C 19.582031 16 16 19.582031 16 24 C 16 28.417969 19.582031 32 24 32 C 28.417969 32 32 28.417969 32 24 L 32 8 C 32 12.417969 28.417969 16 24 16 "/>
<path style=" stroke:none;fill-rule:nonzero;fill:rgb(100%,100%,100%);fill-opacity:1;" d="M 25 17.683594 C 24.425781 22.320312 21.03125 22.613281 20.40625 22.816406 C 18.492188 23.28125 16.519531 23.449219 14.554688 23.3125 C 14.554688 23.3125 12.234375 25.683594 11.515625 26.410156 C 11.433594 26.507812 11.308594 26.558594 11.179688 26.546875 C 11.054688 26.519531 11.019531 26.371094 11.019531 26.15625 C 11.023438 25.847656 11.039062 22.757812 11.039062 22.757812 C 6.511719 21.503906 6.773438 16.773438 6.824219 14.296875 C 6.875 11.820312 7.339844 9.792969 8.726562 8.429688 C 11.203125 6.179688 16.320312 6.515625 16.320312 6.515625 C 20.640625 6.535156 22.710938 7.835938 23.191406 8.269531 C 24.78125 9.636719 25.59375 12.898438 25 17.683594 Z M 24.378906 7.113281 C 23.816406 6.589844 21.519531 4.925781 16.414062 4.90625 C 16.414062 4.90625 10.394531 4.539062 7.460938 7.234375 C 5.824219 8.867188 5.25 11.257812 5.191406 14.222656 C 5.128906 17.1875 4.644531 22.742188 10 24.25 L 10 26.546875 C 10 27.136719 10.175781 28 11.019531 28 C 11.363281 28 11.855469 27.867188 12.539062 27.171875 L 14.816406 24.976562 C 16.890625 25.089844 18.976562 24.902344 21 24.425781 C 21.738281 24.183594 25.925781 23.648438 26.605469 18.09375 C 27.304688 12.367188 26.265625 8.746094 24.378906 7.113281 Z M 24.378906 7.113281 "/>
<path style=" stroke:none;fill-rule:evenodd;fill:rgb(100%,100%,100%);fill-opacity:1;" d="M 16 9 C 19.039062 9 21.5 11.460938 21.5 14.5 C 21.5 14.632812 21.445312 14.757812 21.355469 14.851562 C 21.210938 14.996094 20.996094 15.039062 20.808594 14.960938 C 20.621094 14.882812 20.5 14.703125 20.5 14.5 C 20.5 12.015625 18.484375 10 16 10 L 15.953125 10 C 15.679688 10 15.457031 9.777344 15.453125 9.5 C 15.453125 9.367188 15.507812 9.238281 15.601562 9.148438 C 15.695312 9.050781 15.820312 9 15.953125 9 Z M 16 9 "/>
<path style=" stroke:none;fill-rule:evenodd;fill:rgb(100%,100%,100%);fill-opacity:1;" d="M 16 11 C 17.933594 11 19.5 12.566406 19.5 14.5 C 19.5 14.703125 19.378906 14.882812 19.191406 14.960938 C 19.003906 15.039062 18.789062 14.996094 18.644531 14.851562 C 18.554688 14.757812 18.5 14.632812 18.5 14.5 C 18.5 13.121094 17.378906 12 16 12 L 15.953125 12 C 15.820312 12 15.695312 11.949219 15.601562 11.851562 C 15.507812 11.761719 15.453125 11.632812 15.453125 11.5 C 15.457031 11.222656 15.679688 11 15.953125 11 Z M 16 11 "/>
<path style=" stroke:none;fill-rule:nonzero;fill:rgb(100%,100%,100%);fill-opacity:1;" d="M 21.285156 19.441406 C 21.476562 19.136719 21.433594 18.742188 21.179688 18.488281 C 20.566406 17.949219 19.90625 17.46875 19.199219 17.058594 C 18.839844 16.835938 18.371094 16.898438 18.085938 17.214844 L 17.679688 17.71875 C 17.171875 18.347656 15.609375 17.40625 14.871094 16.632812 C 14.09375 15.886719 13.148438 14.328125 13.78125 13.816406 L 14.285156 13.417969 C 14.597656 13.128906 14.664062 12.660156 14.441406 12.300781 C 14.03125 11.59375 13.550781 10.929688 13.011719 10.320312 C 12.757812 10.066406 12.363281 10.023438 12.058594 10.214844 C 11.671875 10.441406 11.324219 10.726562 11.019531 11.058594 C 10.652344 11.40625 10.511719 11.933594 10.664062 12.414062 C 11.359375 14.355469 12.453125 16.132812 13.875 17.625 C 15.371094 19.046875 17.144531 20.136719 19.085938 20.835938 C 19.570312 20.988281 20.097656 20.851562 20.445312 20.480469 C 20.761719 20.167969 21.042969 19.816406 21.285156 19.441406 Z M 21.285156 19.441406 "/>
</g>
</svg>
