<?xml version="1.0" encoding="UTF-8"?>
<svg xmlns="http://www.w3.org/2000/svg" xmlns:xlink="http://www.w3.org/1999/xlink" width="32px" height="32px" viewBox="0 0 32 32" version="1.1">
<g id="surface1">
<path style=" stroke:none;fill-rule:nonzero;fill:rgb(30.196078%,46.27451%,63.137255%);fill-opacity:1;" d="M 32 16 C 32 24.835938 24.835938 32 16 32 C 7.164062 32 0 24.835938 0 16 C 0 7.164062 7.164062 0 16 0 C 24.835938 0 32 7.164062 32 16 Z M 32 16 "/>
<path style=" stroke:none;fill-rule:evenodd;fill:rgb(100%,100%,100%);fill-opacity:1;" d="M 15.394531 23.015625 L 16.652344 23.015625 C 16.652344 23.015625 17.03125 22.976562 17.222656 22.765625 C 17.402344 22.574219 17.398438 22.214844 17.398438 22.214844 C 17.398438 22.214844 17.371094 20.53125 18.15625 20.28125 C 18.925781 20.039062 19.914062 21.910156 20.964844 22.632812 C 21.757812 23.175781 22.359375 23.054688 22.359375 23.054688 L 25.167969 23.015625 C 25.167969 23.015625 26.632812 22.925781 25.9375 21.773438 C 25.882812 21.679688 25.535156 20.917969 23.851562 19.359375 C 22.09375 17.726562 22.328125 17.992188 24.449219 15.167969 C 25.738281 13.445312 26.253906 12.394531 26.09375 11.945312 C 25.941406 11.515625 24.992188 11.628906 24.992188 11.628906 L 21.832031 11.652344 C 21.832031 11.652344 21.597656 11.617188 21.421875 11.722656 C 21.253906 11.824219 21.144531 12.0625 21.144531 12.0625 C 21.144531 12.0625 20.644531 13.390625 19.976562 14.523438 C 18.570312 16.914062 18.007812 17.039062 17.777344 16.890625 C 17.242188 16.546875 17.378906 15.503906 17.378906 14.761719 C 17.378906 12.445312 17.730469 11.480469 16.695312 11.230469 C 16.351562 11.148438 16.097656 11.09375 15.21875 11.085938 C 14.09375 11.074219 13.136719 11.089844 12.597656 11.351562 C 12.238281 11.527344 11.960938 11.921875 12.128906 11.945312 C 12.339844 11.972656 12.8125 12.070312 13.0625 12.414062 C 13.386719 12.851562 13.375 13.84375 13.375 13.84375 C 13.375 13.84375 13.5625 16.566406 12.941406 16.90625 C 12.515625 17.136719 11.929688 16.664062 10.675781 14.496094 C 10.035156 13.386719 9.550781 12.160156 9.550781 12.160156 C 9.550781 12.160156 9.457031 11.929688 9.289062 11.808594 C 9.085938 11.660156 8.804688 11.613281 8.804688 11.613281 L 5.800781 11.632812 C 5.800781 11.632812 5.351562 11.644531 5.183594 11.839844 C 5.039062 12.015625 5.171875 12.375 5.171875 12.375 C 5.171875 12.375 7.523438 17.871094 10.183594 20.644531 C 12.625 23.183594 15.394531 23.015625 15.394531 23.015625 Z M 15.394531 23.015625 "/>
</g>
</svg>
