<?xml version="1.0" encoding="UTF-8"?>
<svg xmlns="http://www.w3.org/2000/svg" xmlns:xlink="http://www.w3.org/1999/xlink" width="32px" height="32px" viewBox="0 0 32 32" version="1.1">
<g id="surface1">
<path style=" stroke:none;fill-rule:nonzero;fill:rgb(19.215686%,30.588235%,33.333333%);fill-opacity:1;" d="M 16 0 C 7.175781 0 0 7.175781 0 16 C 0 19.007812 0.835938 21.929688 2.421875 24.46875 C 1.789062 26.683594 0.648438 30.871094 0.636719 30.914062 C 0.578125 31.132812 0.640625 31.363281 0.804688 31.519531 C 0.964844 31.675781 1.199219 31.730469 1.410156 31.664062 L 7.753906 29.714844 C 10.238281 31.210938 13.082031 32 16 32 C 24.824219 32 32 24.824219 32 16 C 32 7.175781 24.824219 0 16 0 Z M 16 0 "/>
<path style=" stroke:none;fill-rule:nonzero;fill:rgb(50.588235%,64.313725%,89.019608%);fill-opacity:1;" d="M 16 30.769531 C 13.21875 30.769531 10.511719 29.992188 8.164062 28.523438 C 8.066406 28.460938 7.953125 28.429688 7.839844 28.429688 C 7.777344 28.429688 7.714844 28.4375 7.65625 28.457031 L 2.121094 30.160156 C 2.527344 28.675781 3.257812 26.019531 3.679688 24.542969 C 3.730469 24.371094 3.703125 24.1875 3.605469 24.035156 C 2.050781 21.644531 1.230469 18.867188 1.230469 16 C 1.230469 7.855469 7.855469 1.230469 16 1.230469 C 24.144531 1.230469 30.769531 7.855469 30.769531 16 C 30.769531 24.144531 24.144531 30.769531 16 30.769531 Z M 16 30.769531 "/>
<path style=" stroke:none;fill-rule:nonzero;fill:rgb(19.215686%,30.588235%,33.333333%);fill-opacity:1;" d="M 26.453125 19.769531 C 25.316406 19.140625 24.347656 18.507812 23.644531 18.046875 C 23.105469 17.691406 22.714844 17.4375 22.429688 17.296875 C 21.632812 16.898438 21.027344 17.179688 20.796875 17.410156 C 20.765625 17.441406 20.742188 17.472656 20.71875 17.503906 C 19.890625 18.75 18.808594 19.9375 18.492188 20 C 18.125 19.945312 16.410156 18.96875 14.707031 17.550781 C 12.96875 16.101562 11.875 14.714844 11.710938 13.769531 C 12.828125 12.621094 13.230469 11.898438 13.230469 11.078125 C 13.230469 10.230469 11.253906 6.691406 10.898438 6.335938 C 10.539062 5.976562 9.730469 5.921875 8.496094 6.164062 C 8.375 6.191406 8.265625 6.25 8.179688 6.335938 C 8.03125 6.484375 4.53125 10.050781 6.195312 14.375 C 8.019531 19.121094 12.703125 24.636719 18.679688 25.53125 C 19.355469 25.632812 19.992188 25.683594 20.589844 25.683594 C 24.101562 25.683594 26.175781 23.914062 26.761719 20.410156 C 26.804688 20.152344 26.679688 19.894531 26.453125 19.769531 Z M 26.453125 19.769531 "/>
<path style=" stroke:none;fill-rule:nonzero;fill:rgb(84.705882%,84.705882%,84.705882%);fill-opacity:1;" d="M 18.859375 24.3125 C 12.542969 23.367188 8.566406 17.109375 7.34375 13.933594 C 6.132812 10.78125 8.367188 7.972656 8.929688 7.335938 C 9.386719 7.261719 9.867188 7.226562 10.066406 7.257812 C 10.484375 7.84375 11.9375 10.582031 12 11.078125 C 12 11.398438 11.894531 11.851562 10.640625 13.101562 C 10.527344 13.21875 10.460938 13.375 10.460938 13.539062 C 10.460938 16.761719 17.257812 21.230469 18.460938 21.230469 C 19.507812 21.230469 20.875 19.472656 21.648438 18.324219 C 21.695312 18.328125 21.769531 18.34375 21.878906 18.398438 C 22.101562 18.507812 22.484375 18.757812 22.96875 19.074219 C 23.609375 19.496094 24.460938 20.050781 25.46875 20.628906 C 25.011719 22.824219 23.734375 25.046875 18.859375 24.3125 Z M 18.859375 24.3125 "/>
</g>
</svg>
